# xmcd CD database file
#
# Track frame offsets:
#	150
#	15802
#	44895
#	65432
#	79965
#	98467
#	128092
#	155932
#	172617
#	182887
#
# Disc length: 2966 seconds
#
# Revision: 0
# Processed by: cddbd v1.5.1PL0 Copyright (c) Steve Scherf et al.
# Submitted via: CDex 1.51
#
DISCID=780b940a
DTITLE=Lennie Tristano - Descent into the Maelstrom
DYEAR=1900
DGENRE=Jazz
TTITLE0=Descent into the Maelstrom
TTITLE1=Dream: Paris 1965
TTITLE2=Image: Paris 1965
TTITLE3=Take 1 - Rehersal from Recording Date
TTITLE4=Take 2 - Rehersal from Recording Date
TTITLE5=Take 3 - Rehersal from Recording Date
TTITLE6=Stretch
TTITLE7=Pastime
TTITLE8=Ju-Ju
TTITLE9=Con Con
EXTD=
EXTT0=
EXTT1=
EXTT2=
EXTT3=
EXTT4=
EXTT5=
EXTT6=
EXTT7=
EXTT8=
EXTT9=
PLAYORDER=
